# xmcd
#
# Track frame offsets:
#	150
#	14755
#	30238
#	39427
#	53673
#	66400
#	81407
#	96826
#	112311
#	138480
#	147691
#	159460
#	174966
#	188979
#	200592
#
# Disc length: 2800 seconds
#
# Revision: 0
# Processed by: cddbd v1.5.2PL0 Copyright (c) Steve Scherf et al.
# Submitted via: dBpowerAMP V4.0
#
DISCID=dc0aee0f
DTITLE=The II Edition - Praise Him With Polkas
DYEAR=1995
DGENRE=Polka
TTITLE0=Chapel In The Valley
TTITLE1=We Offer Bread and Wine
TTITLE2=Let The Sone Shine In
TTITLE3=Under The Skys Of Blue
TTITLE4=You Taught Us How To Pray
TTITLE5=Above The Mountain
TTITLE6=Let All Of Us Remember
TTITLE7=Stand Up For Jesus
TTITLE8=How Great Thou Art
TTITLE9=Just As I Am
TTITLE10=The Lord's Prayer
TTITLE11=God Will Take Care Of You
TTITLE12=Standing On The Promises
TTITLE13=Rock Of Ages
TTITLE14=Lord Dismiss Us With Thy Blessing
EXTD=The II edition Polka Band
EXTT0=
EXTT1=
EXTT2=
EXTT3=
EXTT4=
EXTT5=
EXTT6=
EXTT7=
EXTT8=
EXTT9=
EXTT10=
EXTT11=
EXTT12=
EXTT13=
EXTT14=
PLAYORDER=
